<?xml version="1.0" standalone="no"?>
<!DOCTYPE svg PUBLIC "-//W3C//DTD SVG 20010904//EN"
 "http://www.w3.org/TR/2001/REC-SVG-20010904/DTD/svg10.dtd">
<svg version="1.0" xmlns="http://www.w3.org/2000/svg"
 width="512.000000pt" height="141.000000pt" viewBox="0 0 512.000000 141.000000"
 preserveAspectRatio="xMidYMid meet">
<metadata>
Created by potrace 1.15, written by Peter Selinger 2001-2017
</metadata>
<g transform="translate(0.000000,141.000000) scale(0.100000,-0.100000)"
fill="#000000" stroke="none">
<path d="M1170 1396 c14 -8 36 -29 50 -48 l25 -33 3 -657 2 -658 1935 0 1935
0 0 308 c0 284 -1 305 -16 277 -49 -95 -103 -115 -316 -115 l-158 0 0 85 0 85
149 0 149 0 11 31 c15 44 14 208 -2 239 -11 22 -20 25 -75 28 l-62 3 0 -126
c0 -69 -3 -125 -6 -125 -3 0 -41 33 -85 73 l-79 72 0 138 0 137 148 0 c203 0
268 -21 317 -104 l25 -41 0 223 0 222 -1987 0 c-1686 -1 -1984 -3 -1963 -14z
m1611 -296 c54 -20 109 -64 109 -87 0 -7 -24 -31 -54 -53 l-54 -41 -37 26
c-43 28 -96 33 -119 9 -37 -37 -6 -62 109 -89 118 -27 175 -93 175 -201 -1
-117 -111 -204 -257 -204 -66 0 -146 35 -193 84 l-35 37 59 55 59 55 21 -20
c44 -41 141 -56 166 -25 22 25 -17 53 -96 70 -84 17 -141 55 -171 115 -36 69
-27 164 21 217 61 69 194 92 297 52z m511 4 c62 -24 138 -102 138 -141 0 -5
-31 -19 -69 -32 l-70 -24 -27 22 c-32 25 -90 28 -122 5 -21 -14 -22 -22 -22
-144 0 -122 1 -130 22 -144 34 -24 82 -20 118 11 31 26 33 26 64 10 17 -9 48
-23 69 -31 43 -17 46 -30 14 -74 -55 -73 -134 -107 -235 -100 -112 8 -191 64
-217 152 -18 59 -20 281 -4 341 20 74 79 128 169 156 44 13 128 10 172 -7z
m535 0 c68 -22 116 -58 144 -107 23 -40 24 -51 24 -207 0 -152 -2 -168 -22
-207 -79 -147 -346 -169 -461 -37 -47 52 -52 76 -52 244 0 171 5 193 54 246
70 76 202 105 313 68z m-1844 -8 c67 -20 106 -53 133 -110 21 -46 24 -65 24
-191 0 -163 -9 -202 -56 -255 -53 -59 -99 -70 -286 -70 l-159 0 3 82 3 83 148
3 148 3 10 27 c6 15 9 77 7 140 -3 129 -5 132 -85 132 l-53 0 0 -119 c0 -71
-4 -122 -10 -126 -6 -4 -32 14 -58 38 -26 25 -62 58 -79 73 l-33 28 0 138 0
138 148 0 c98 0 165 -5 195 -14z m397 -306 l0 -320 -90 0 -90 0 0 320 0 320
90 0 90 0 0 -320z m2028 308 c65 -15 98 -41 127 -99 49 -95 24 -238 -51 -291
l-34 -25 37 -49 c20 -27 56 -72 80 -100 24 -28 43 -54 43 -58 0 -3 -49 -6
-109 -6 l-110 0 -55 78 c-71 99 -82 112 -90 112 -3 0 -6 -43 -6 -95 l0 -95
-90 0 -90 0 0 320 0 320 151 0 c82 0 171 -5 197 -12z"/>
<path d="M3655 925 c-23 -22 -25 -31 -25 -127 0 -57 3 -113 6 -124 10 -39 89
-57 148 -34 l26 10 0 140 0 140 -26 10 c-47 18 -103 12 -129 -15z"/>
<path d="M4240 880 l0 -60 54 0 c64 0 86 16 86 64 0 45 -16 56 -82 56 l-58 0
0 -60z"/>
<path d="M835 1034 c55 -27 82 -50 72 -60 -3 -4 -22 1 -41 10 -53 25 -183 56
-235 56 -54 0 -157 -21 -221 -45 -77 -28 -83 -29 -78 -14 2 8 27 26 54 41 27
15 45 28 40 28 -4 0 -30 -12 -57 -26 -45 -25 -50 -32 -78 -105 -44 -114 -52
-150 -54 -246 l-2 -86 42 -33 c25 -19 64 -37 95 -43 49 -11 53 -10 69 11 17
22 17 23 -14 36 -38 16 -77 51 -77 69 0 17 1 17 67 -16 84 -42 201 -58 295
-41 40 7 99 25 130 41 66 33 68 34 68 15 0 -16 -77 -76 -97 -76 -16 0 -16 -10
1 -33 12 -15 20 -16 61 -7 60 13 93 31 128 68 26 27 28 34 22 78 -15 103 -45
223 -73 285 -28 62 -33 67 -89 92 -75 34 -95 35 -28 1z m-277 -240 c28 -32 28
-73 1 -108 -18 -23 -27 -27 -68 -24 -42 3 -48 6 -64 40 -16 33 -17 40 -3 72
25 60 89 70 134 20z m225 24 c33 -17 46 -39 47 -78 0 -55 -23 -80 -75 -80 -35
0 -48 5 -64 26 -36 46 -20 113 33 134 29 12 34 12 59 -2z"/>
<path d="M930 266 c0 -2 7 -23 15 -46 8 -23 15 -46 15 -51 0 -5 -189 -9 -425
-9 -474 0 -463 -1 -510 67 l-25 38 0 -133 0 -132 610 0 c336 0 610 2 610 4 0
2 -33 32 -72 66 -40 35 -106 93 -145 131 -40 37 -73 66 -73 65z"/>
</g>
</svg>
